# xmcd CD database file
#
# Track frame offsets:
#	150
#	20504
#	44416
#	63361
#	83029
#	96044
#	127696
#	145016
#	160986
#	178521
#	199651
#	213876
#	225241
#	244369
#
# Disc length: 3601 seconds
#
# Revision: 2
# Processed by: cddbd v1.4b41PL1 Copyright (c) Steve Scherf et al.
# Submitted via: Feurio! 1.52 - http://www.feurio.com
#
DISCID=ae0e0f0e
DTITLE=Calvin Russell - le voyageur
DYEAR=1900
DGENRE=
TTITLE0=Living On the End of a gun
TTITLE1=Characters
TTITLE2=My Way
TTITLE3=One Meatball
TTITLE4=A Crack in Time
TTITLE5=Crossroads
TTITLE6=Play with Fire
TTITLE7=You don´t know
TTITLE8=Should´ve Been with You
TTITLE9=Rockin´the Republicans
TTITLE10=Its Just You
TTITLE11=Down in Texas
TTITLE12=North Austin Slim
TTITLE13=Maybe Someday
EXTD=
EXTT0=
EXTT1=
EXTT2=
EXTT3=
EXTT4=
EXTT5=
EXTT6=
EXTT7=
EXTT8=
EXTT9=
EXTT10=
EXTT11=
EXTT12=
EXTT13=
PLAYORDER=
